<svg xmlns="http://www.w3.org/2000/svg" width="1080" height="1080" viewBox="0 0 1080 1080"><path d="M647.4 784.4c-4.9-3.1-12.5-8-16.9-10.9-33.6-22.2-71.5-40.1-97-45.9-29-6.7-62.1-6.1-84.1 1.4-10.7 3.7-31.7 14.9-38.9 20.8-6.7 5.5-18.9 17.3-24.8 24-1.6 1.7-3.4 3.2-4.1 3.2-2.9 0-17-22.1-19.1-30.1-2.2-8-1.9-18.7.6-25.4 2.2-6 17.6-25.1 24.7-30.7 6.9-5.5 23.7-21.2 35.3-33.1 12.9-13.1 25-29.4 30.3-41 4.9-10.5 12.4-30.9 14.2-38.7 5.1-21.9 6.4-58 6.1-172-.2-68.1-.4-75.8-1.9-78.5-4.3-7.8-18.4-13.5-33.4-13.5-7.6 0-22.5 3.5-29.6 6.8-7.6 3.7-21 13.5-26.1 19.1-2 2.2-5.1 6.9-6.9 10.3-3.2 6.1-3.3 6.7-3.3 17.8 0 10.8.2 11.9 3 17.3 3.7 7.5 13 16.1 22 20.7 6.4 3.3 7.5 3.5 16.4 3.5 5.3 0 10.6-.4 11.9-.8 3.2-1.2 2.8.6-1.2 5-1.9 2.1-6.9 5.6-11.1 7.7-6.9 3.5-8.5 3.9-14.9 3.9-21.8-.1-48.4-22.2-56.1-46.6-4.9-15.3-5.4-28.2-1.9-47 2.6-13.6 9.1-28.5 18.7-42.7 3.4-5.1 16-17.7 22.6-22.8 6.7-5.1 24.4-13.5 36.3-17.2 16.7-5.2 56.2-5.4 79.3-.4 12.2 2.6 32.6 10.4 48.8 18.5l9.8 5 8.3-7.8c9-8.5 18.5-14.3 23.6-14.3 8.2 0 18.1 8.9 20.4 18.4.6 2.6-.1 3.5-8.5 11.4-14.5 13.8-23.6 28.2-28.8 46.2-6.5 22.3-6.3 18.5-7.1 122.5-.6 83-.9 96.3-2.4 105.5-2 12.2-8.8 33.5-13.9 43.6-6.2 12.3-18.6 27.5-27.4 33.6-2.4 1.6-4.3 3.2-4.3 3.6s10.2.8 22.8.8c19.4 0 24.4.4 34.2 2.3 15.7 3.1 57.7 13.4 73 17.9 12.3 3.6 12.8 3.7 29.5 3.7h17l14-4.9c11.8-4.1 27.9-11.5 36.2-16.6 1.9-1.2 2.5-1 5.5 1.6 8.7 7.4 8.6 9.7-.5 23.6-3.4 5.3-11.4 17.6-17.7 27.5-6.3 9.8-15.1 23.4-19.6 30.3-4.4 6.9-13.4 20.8-19.9 31-16.8 26.3-26.7 38-31.9 38-1.3 0-6.3-2.5-11.2-5.6"/></svg>